<svg xmlns="http://www.w3.org/2000/svg" viewBox="0 0 32 32">
  <path fill="url(#a)" fill-rule="evenodd" d="M20.19 9.06 16 0l-4.19 9.06c-.06.13-.12.26-.2.39L9.29 7.1a1.57 1.57 0 1 0-2.22 2.23l2.32 2.31a5.7 5.7 0 0 1-.26.13l-.06.03L0 16l9.06 4.19.31.15h.01l-2.32 2.33a1.57 1.57 0 0 0 2.22 2.22l2.34-2.33.2.38L16 32l4.19-9.06.16-.32 2.27 2.27a1.57 1.57 0 1 0 2.22-2.22l-2.29-2.29.4-.2L32 16l-9.06-4.19a5.6 5.6 0 0 1-.38-.2l2.28-2.28a1.57 1.57 0 0 0-2.22-2.22l-2.27 2.27-.15-.28-.01-.04Zm-4.2.47-.56 1.2a9.65 9.65 0 0 1-4.71 4.72l-1.2.55 1.2.55a9.65 9.65 0 0 1 4.71 4.71l.55 1.2.56-1.2a9.65 9.65 0 0 1 4.71-4.7l1.2-.56-1.2-.55a9.65 9.65 0 0 1-4.71-4.71l-.56-1.2Z" clip-rule="evenodd"/>
  <path fill="url(#a)" d="M29.54 4.63a1.57 1.57 0 1 0-2.22-2.22l-.75.75a1.57 1.57 0 1 0 2.22 2.22l.75-.75Zm-23.96 1c-.62.61-1.61.61-2.22 0l-.75-.75a1.57 1.57 0 1 1 2.22-2.22l.75.75c.61.61.61 1.6 0 2.22Zm0 20.74a1.57 1.57 0 0 0-2.22 0l-.75.75a1.57 1.57 0 0 0 2.22 2.22l.75-.75c.61-.61.61-1.6 0-2.22Zm23.96 1a1.57 1.57 0 1 1-2.22 2.22l-.75-.75a1.57 1.57 0 1 1 2.22-2.22l.75.75Z"/>
  <defs>
    <linearGradient id="a" x1="3.32" x2="28.66" y1="2.28" y2="32.45" gradientUnits="userSpaceOnUse">
      <stop stop-color="#FBD57F"/>
      <stop offset="1" stop-color="#D17F0D"/>
    </linearGradient>
  </defs>
</svg>
